<svg xmlns="http://www.w3.org/2000/svg" viewBox="0 0 512 512" role="img" aria-labelledby="title desc">
  <title id="title">Memoria archive index icon</title>
  <desc id="desc">A luminous green archival index card containing concentric memory rings.</desc>
  <rect width="512" height="512" rx="96" fill="#0B0B0C"/>
  <path
    fill="#A7EF9E"
    d="M154 106h204c21 0 38 17 38 38v224c0 21-17 38-38 38H154c-21 0-38-17-38-38V144c0-21 17-38 38-38Z"
  />
  <path
    fill="#0B0B0C"
    d="M190 166h132c18 0 32 14 32 32v102c0 18-14 32-32 32H190c-18 0-32-14-32-32V198c0-18 14-32 32-32Z"
  />
  <g fill="none" stroke="#A7EF9E" stroke-linecap="round">
    <circle cx="256" cy="249" r="50" stroke-width="22"/>
    <circle cx="256" cy="249" r="82" stroke-width="14" opacity=".72"/>
    <circle cx="256" cy="249" r="112" stroke-width="10" opacity=".42"/>
  </g>
  <rect x="326" y="355" width="34" height="16" rx="8" fill="#0891B2"/>
</svg>
